<svg width="90" height="26" viewBox="0 0 90 26" fill="none" xmlns="http://www.w3.org/2000/svg">
<path d="M5.94 11.2C6.3 11.3 6.64 11.37 6.96 11.41C7.3 11.43 7.59 11.44 7.83 11.44C8.21 11.44 8.57 11.4 8.91 11.32C9.27 11.22 9.58 11.06 9.84 10.84C10.1 10.62 10.31 10.33 10.47 9.97C10.63 9.59 10.71 9.11 10.71 8.53C10.71 7.93 10.62 7.44 10.44 7.06C10.28 6.66 10.06 6.35 9.78 6.13C9.5 5.91 9.17 5.76 8.79 5.68C8.43 5.6 8.05 5.56 7.65 5.56C7.07 5.56 6.5 5.62 5.94 5.74V11.2ZM0.81 25C0.87 23.1 0.91 21.21 0.93 19.33C0.95 17.43 0.96 15.63 0.96 13.93C0.96 11.51 0.94 9.21 0.9 7.03C0.88 4.85 0.85 2.66 0.81 0.459999C1.79 0.36 2.77 0.279999 3.75 0.219999C4.75 0.139999 5.73 0.0999987 6.69 0.0999987C8.07 0.0999987 9.36 0.209998 10.56 0.429998C11.76 0.649999 12.8 1.06 13.68 1.66C14.58 2.24 15.29 3.06 15.81 4.12C16.33 5.16 16.59 6.5 16.59 8.14C16.59 9.66 16.37 10.96 15.93 12.04C15.49 13.1 14.87 13.97 14.07 14.65C13.29 15.31 12.35 15.79 11.25 16.09C10.15 16.39 8.93 16.54 7.59 16.54C7.25 16.54 6.95 16.53 6.69 16.51C6.45 16.49 6.18 16.46 5.88 16.42C5.88 17.86 5.89 19.29 5.91 20.71C5.93 22.13 5.99 23.56 6.09 25H0.81ZM28.6685 25.09C28.1085 25.07 27.3685 25.05 26.4485 25.03C25.5285 25.03 24.5385 25.02 23.4785 25C22.4385 25 21.3885 25 20.3285 25C19.2885 25 18.3685 25 17.5685 25C17.5885 24.58 17.5985 24.02 17.5985 23.32C17.6185 22.62 17.6285 21.82 17.6285 20.92C17.6285 20.02 17.6285 19.05 17.6285 18.01C17.6285 16.95 17.6285 15.86 17.6285 14.74C17.6285 13.22 17.6185 11.7 17.5985 10.18C17.5985 8.66 17.5985 7.25 17.5985 5.95C17.5985 4.63 17.5885 3.49 17.5685 2.53C17.5685 1.57 17.5685 0.889999 17.5685 0.489999C18.3485 0.489999 19.2085 0.489999 20.1485 0.489999C21.0885 0.489999 22.0485 0.489999 23.0285 0.489999C24.0085 0.469999 24.9685 0.449999 25.9085 0.429998C26.8485 0.409998 27.7285 0.389999 28.5485 0.369999C28.5485 0.629999 28.5485 0.859999 28.5485 1.06C28.5685 1.24 28.5785 1.5 28.5785 1.84C28.5785 2.08 28.5685 2.37 28.5485 2.71C28.5485 3.03 28.5385 3.37 28.5185 3.73C28.5185 4.07 28.5085 4.42 28.4885 4.78C28.4885 5.12 28.4785 5.44 28.4585 5.74H22.4285V9.22H27.6785V13.69H22.4285V17.05H28.5485C28.5685 17.51 28.5885 17.98 28.6085 18.46C28.6285 18.94 28.6385 19.48 28.6385 20.08C28.6585 20.68 28.6685 21.39 28.6685 22.21C28.6685 23.01 28.6685 23.97 28.6685 25.09ZM29.8997 0.549998C31.0397 0.389999 32.1297 0.279999 33.1697 0.219999C34.2097 0.139999 35.0997 0.0999987 35.8397 0.0999987C37.5997 0.0999987 39.2197 0.339999 40.6997 0.819998C42.1797 1.3 43.4797 2.16 44.5997 3.4C45.6197 4.56 46.3797 5.97 46.8797 7.63C47.3797 9.27 47.6297 11.04 47.6297 12.94C47.6297 14.8 47.3897 16.49 46.9097 18.01C46.4297 19.53 45.6897 20.83 44.6897 21.91C43.7097 22.99 42.4697 23.83 40.9697 24.43C39.4697 25.03 37.6997 25.33 35.6597 25.33C35.1997 25.33 34.4497 25.31 33.4097 25.27C32.3897 25.23 31.2597 25.14 30.0197 25C30.0397 24.08 30.0497 23.19 30.0497 22.33C30.0697 21.45 30.0797 20.59 30.0797 19.75C30.0997 18.89 30.1097 18.03 30.1097 17.17C30.1097 16.31 30.1097 15.42 30.1097 14.5C30.1097 11.88 30.0897 9.37 30.0497 6.97C30.0297 4.57 29.9797 2.43 29.8997 0.549998ZM35.7197 5.08C35.5197 5.08 35.3297 5.09 35.1497 5.11C34.9897 5.13 34.8297 5.15 34.6697 5.17C34.6497 6.11 34.6397 7.05 34.6397 7.99C34.6397 8.91 34.6397 9.84 34.6397 10.78C34.6397 11.24 34.6397 11.73 34.6397 12.25C34.6597 12.77 34.6697 13.31 34.6697 13.87C34.6897 14.41 34.7097 14.96 34.7297 15.52C34.7497 16.06 34.7597 16.57 34.7597 17.05C34.9397 17.09 35.1197 17.12 35.2997 17.14C35.4797 17.14 35.6397 17.14 35.7797 17.14C36.5197 17.14 37.1997 16.98 37.8197 16.66C38.4597 16.34 39.0097 15.91 39.4697 15.37C39.9497 14.81 40.3197 14.16 40.5797 13.42C40.8397 12.68 40.9697 11.89 40.9697 11.05C40.9697 10.43 40.8797 9.77 40.6997 9.07C40.5397 8.35 40.2497 7.7 39.8297 7.12C39.4297 6.54 38.8897 6.06 38.2097 5.68C37.5497 5.28 36.7197 5.08 35.7197 5.08ZM48.6497 0.549998C49.7897 0.389999 50.8797 0.279999 51.9197 0.219999C52.9597 0.139999 53.8497 0.0999987 54.5897 0.0999987C56.3497 0.0999987 57.9697 0.339999 59.4497 0.819998C60.9297 1.3 62.2297 2.16 63.3497 3.4C64.3697 4.56 65.1297 5.97 65.6297 7.63C66.1297 9.27 66.3797 11.04 66.3797 12.94C66.3797 14.8 66.1397 16.49 65.6597 18.01C65.1797 19.53 64.4397 20.83 63.4397 21.91C62.4597 22.99 61.2197 23.83 59.7197 24.43C58.2197 25.03 56.4497 25.33 54.4097 25.33C53.9497 25.33 53.1997 25.31 52.1597 25.27C51.1397 25.23 50.0097 25.14 48.7697 25C48.7897 24.08 48.7997 23.19 48.7997 22.33C48.8197 21.45 48.8297 20.59 48.8297 19.75C48.8497 18.89 48.8597 18.03 48.8597 17.17C48.8597 16.31 48.8597 15.42 48.8597 14.5C48.8597 11.88 48.8397 9.37 48.7997 6.97C48.7797 4.57 48.7297 2.43 48.6497 0.549998ZM54.4697 5.08C54.2697 5.08 54.0797 5.09 53.8997 5.11C53.7397 5.13 53.5797 5.15 53.4197 5.17C53.3997 6.11 53.3897 7.05 53.3897 7.99C53.3897 8.91 53.3897 9.84 53.3897 10.78C53.3897 11.24 53.3897 11.73 53.3897 12.25C53.4097 12.77 53.4197 13.31 53.4197 13.87C53.4397 14.41 53.4597 14.96 53.4797 15.52C53.4997 16.06 53.5097 16.57 53.5097 17.05C53.6897 17.09 53.8697 17.12 54.0497 17.14C54.2297 17.14 54.3897 17.14 54.5297 17.14C55.2697 17.14 55.9497 16.98 56.5697 16.66C57.2097 16.34 57.7597 15.91 58.2197 15.37C58.6997 14.81 59.0697 14.16 59.3297 13.42C59.5897 12.68 59.7197 11.89 59.7197 11.05C59.7197 10.43 59.6297 9.77 59.4497 9.07C59.2897 8.35 58.9997 7.7 58.5797 7.12C58.1797 6.54 57.6397 6.06 56.9597 5.68C56.2997 5.28 55.4697 5.08 54.4697 5.08ZM72.6797 0.459999C72.6197 3.2 72.5697 5.46 72.5297 7.24C72.5097 9.02 72.4897 10.52 72.4697 11.74C72.4497 12.94 72.4397 13.95 72.4397 14.77C72.4397 15.59 72.4397 16.42 72.4397 17.26L77.1497 17.08C77.1897 17.74 77.2197 18.39 77.2397 19.03C77.2597 19.67 77.2697 20.31 77.2697 20.95C77.2697 21.61 77.2597 22.28 77.2397 22.96C77.2197 23.62 77.1897 24.3 77.1497 25H67.4597C67.5197 22.2 67.5597 19.33 67.5797 16.39C67.6197 13.45 67.6397 10.58 67.6397 7.78C67.6397 6.48 67.6397 5.22 67.6397 4C67.6397 2.78 67.6297 1.6 67.6097 0.459999H72.6797ZM89.606 25.09C89.046 25.07 88.306 25.05 87.386 25.03C86.466 25.03 85.476 25.02 84.416 25C83.376 25 82.326 25 81.266 25C80.226 25 79.306 25 78.506 25C78.526 24.58 78.536 24.02 78.536 23.32C78.556 22.62 78.566 21.82 78.566 20.92C78.566 20.02 78.566 19.05 78.566 18.01C78.566 16.95 78.566 15.86 78.566 14.74C78.566 13.22 78.556 11.7 78.536 10.18C78.536 8.66 78.536 7.25 78.536 5.95C78.536 4.63 78.526 3.49 78.506 2.53C78.506 1.57 78.506 0.889999 78.506 0.489999C79.286 0.489999 80.146 0.489999 81.086 0.489999C82.026 0.489999 82.986 0.489999 83.966 0.489999C84.946 0.469999 85.906 0.449999 86.846 0.429998C87.786 0.409998 88.666 0.389999 89.486 0.369999C89.486 0.629999 89.486 0.859999 89.486 1.06C89.506 1.24 89.516 1.5 89.516 1.84C89.516 2.08 89.506 2.37 89.486 2.71C89.486 3.03 89.476 3.37 89.456 3.73C89.456 4.07 89.446 4.42 89.426 4.78C89.426 5.12 89.416 5.44 89.396 5.74H83.366V9.22H88.616V13.69H83.366V17.05H89.486C89.506 17.51 89.526 17.98 89.546 18.46C89.566 18.94 89.576 19.48 89.576 20.08C89.596 20.68 89.606 21.39 89.606 22.21C89.606 23.01 89.606 23.97 89.606 25.09Z" fill="#BA55D3"/>
</svg>
